<svg width="160" height="160" viewBox="0 0 160 160" fill="none" xmlns="http://www.w3.org/2000/svg">
  <path d="M35 8L79 50L124 8L146 30L94 84H65L13 30L35 8Z" fill="#E63A2E"/>
  <path d="M126 8L79 50L35 8H72L90 26L108 8H126Z" fill="#BE3026"/>
  <rect x="67" y="40" width="26" height="22" rx="4" fill="#C9890A"/>
  <circle cx="80" cy="102" r="46" fill="#FBC329" stroke="#DF920D" stroke-width="8"/>
  <circle cx="80" cy="102" r="39" fill="url(#goldFill)"/>
  <path d="M55 112C61 97 67 87 80 84C93 87 99 97 105 112" stroke="#D39112" stroke-width="6" stroke-linecap="round"/>
  <path d="M61 120C66 105 71 97 80 94C89 97 94 105 99 120" stroke="#D39112" stroke-width="6" stroke-linecap="round"/>
  <text x="80" y="118" text-anchor="middle" font-size="48" font-weight="700" fill="#C9890A" font-family="Arial, sans-serif">1</text>
  <defs>
    <linearGradient id="goldFill" x1="80" y1="64" x2="80" y2="140" gradientUnits="userSpaceOnUse">
      <stop stop-color="#FFD24E"/>
      <stop offset="1" stop-color="#F6B81F"/>
    </linearGradient>
  </defs>
</svg>
