<svg version="1.1" id="Layer_1" xmlns="http://www.w3.org/2000/svg" xmlns:xlink="http://www.w3.org/1999/xlink" x="0px" y="0px"
	 width="100%" viewBox="0 0 460 208" enable-background="new 0 0 460 208" xml:space="preserve">
<path fill="#010101" opacity="1.000000" stroke="none" 
	d="
M289.000000,209.000000 
	C192.666687,209.000000 96.833366,209.000000 1.000039,209.000000 
	C1.000026,139.666702 1.000026,70.333389 1.000013,1.000044 
	C77.666618,1.000000 154.333237,1.000000 230.999863,1.000000 
	C307.666504,1.000000 384.333160,1.000000 460.999878,1.000000 
	C460.999908,70.333260 460.999908,139.666519 460.999939,208.999893 
	C403.833344,209.000000 346.666656,209.000000 289.000000,209.000000 
M218.794647,122.284668 
	C218.648865,122.445084 218.659439,122.594353 218.288147,123.276009 
	C218.209396,123.518532 218.130661,123.761047 217.544891,124.452217 
	C215.302383,128.274414 212.849258,131.994690 210.925262,135.970993 
	C210.197144,137.475769 210.032028,139.901657 210.751465,141.334839 
	C212.797211,145.410217 215.430832,149.190475 217.819809,153.812790 
	C219.884079,156.489548 221.948349,159.166290 224.903702,162.152054 
	C248.268051,162.100983 271.632416,162.049911 295.182251,162.250214 
	C295.182251,162.250214 295.639099,162.279205 295.639099,162.279205 
	C295.639099,162.279205 295.954651,161.979645 296.662994,162.022385 
	C297.569031,161.102554 298.718628,160.323746 299.344971,159.242004 
	C310.677002,139.670624 321.979370,120.081688 333.145813,100.415756 
	C333.819214,99.229774 333.904633,97.026764 333.249878,95.871544 
	C322.098663,76.196442 310.821198,56.592346 299.425842,37.057568 
	C298.746216,35.892460 296.858643,34.811642 295.501038,34.771278 
	C290.029297,34.608601 284.544891,34.870010 278.682800,34.720539 
	C278.098938,34.804962 277.515106,34.889381 276.030487,34.727230 
	C259.691681,34.808071 243.352890,34.888912 226.540146,34.711300 
	C225.534821,34.910339 224.529510,35.109379 223.399307,35.298191 
	C223.399307,35.298191 223.342392,35.409821 222.746658,35.693157 
	C220.412628,39.753407 218.078598,43.813660 215.202896,48.270302 
	C213.681213,51.138653 212.159546,54.007000 210.106888,57.272842 
	C208.213303,60.785393 206.319702,64.297943 204.105118,68.010292 
	C203.919815,68.210114 203.848694,68.444588 203.355927,68.944962 
	C203.231995,69.295692 203.108063,69.646423 202.575104,70.387993 
	C202.334915,70.894585 202.094727,71.401176 201.248291,72.185738 
	C200.431366,73.962181 199.614441,75.738625 198.235382,77.932060 
	C196.755890,80.711960 195.276398,83.491859 193.198639,86.681625 
	C191.857239,89.125854 190.515823,91.570091 188.691757,94.507416 
	C187.044128,97.310074 185.396515,100.112724 183.134109,103.212128 
	C182.028442,105.452179 180.922791,107.692230 179.211411,110.254738 
	C175.312485,117.208298 171.548828,124.244469 167.397202,131.043732 
	C166.594086,132.359009 164.288010,133.423950 162.652679,133.456039 
	C151.511688,133.674683 140.359970,133.753815 129.223953,133.441376 
	C127.229263,133.385422 124.518280,131.782486 123.455475,130.074173 
	C117.487335,120.481293 111.854904,110.675507 106.312798,100.827087 
	C105.676468,99.696312 105.786804,97.556351 106.441803,96.380600 
	C111.921219,86.544830 117.692505,76.871765 123.182213,67.041542 
	C124.774765,64.189796 126.753395,63.221050 129.977310,63.279247 
	C140.452393,63.468342 150.935226,63.468903 161.410217,63.277210 
	C164.637436,63.218155 166.486801,64.115921 168.054413,67.098686 
	C171.519867,73.692612 175.488235,80.022232 179.779709,87.363266 
	C181.817505,83.431198 183.464722,80.252762 185.698776,76.722366 
	C186.799469,74.703453 187.900162,72.684540 189.276245,70.631577 
	C189.444962,70.460114 189.436264,70.298149 189.824387,69.625885 
	C190.013123,69.149841 190.201859,68.673798 190.925690,67.825844 
	C192.328430,65.391693 193.908188,63.037735 195.062057,60.490829 
	C195.673447,59.141312 196.180908,57.158169 195.628403,55.980263 
	C194.104324,52.730965 191.997208,49.755142 190.020554,45.995037 
	C188.054276,42.876751 186.087982,39.758465 183.958374,35.883999 
	C182.237381,35.195229 180.519180,33.915562 178.794952,33.907352 
	C157.020660,33.803638 135.244736,33.983345 113.471298,33.818382 
	C109.797302,33.790546 107.687157,34.967785 105.947960,38.061871 
	C95.311874,56.983772 84.467056,75.789276 73.982002,94.793686 
	C72.959259,96.647423 73.095802,100.004623 74.089409,101.952141 
	C77.709808,109.048325 81.888268,115.862396 85.919418,122.745880 
	C93.387337,135.497894 100.899673,148.223907 108.490425,161.460327 
	C109.338699,161.655853 110.186974,161.851364 111.800285,162.232285 
	C112.840729,162.164520 113.881180,162.096771 115.153679,162.293411 
	C115.460579,162.204773 115.767479,162.116135 116.983467,162.228760 
	C134.968628,162.160004 152.953796,162.091248 171.161316,162.290497 
	C171.464218,162.202347 171.767120,162.114197 172.953079,162.227280 
	C174.930344,162.241776 177.029831,162.679642 178.851151,162.153946 
	C180.742569,161.607971 182.364914,160.129807 184.641907,158.639038 
	C185.717804,156.622787 186.793716,154.606537 188.408691,152.177444 
	C189.664093,149.817734 190.919495,147.458023 192.739990,144.684799 
	C194.091019,142.252930 195.442047,139.821060 197.281784,136.999588 
	C198.225708,135.099564 199.169647,133.199524 200.673767,130.908417 
	C201.773300,128.932617 202.872833,126.956802 204.505310,124.570145 
	C206.120346,121.626869 207.735382,118.683594 209.926987,115.324341 
	C211.329697,112.661217 212.732422,109.998093 214.700272,106.926231 
	C216.507492,103.702469 218.314697,100.478706 220.690201,96.863472 
	C222.469177,93.574806 224.248154,90.286148 226.584076,86.608467 
	C230.561646,79.863853 234.396469,73.027504 238.626556,66.445183 
	C239.573441,64.971771 241.885910,63.569790 243.603058,63.528648 
	C254.596710,63.265278 265.601898,63.283009 276.597229,63.506359 
	C278.219910,63.539314 280.490051,64.741783 281.307251,66.098099 
	C287.236481,75.938965 292.958954,85.909103 298.493958,95.977364 
	C299.266693,97.382980 299.335297,99.918800 298.579163,101.302719 
	C293.149292,111.240746 287.532410,121.083076 281.670227,130.771423 
	C280.788635,132.228439 278.340973,133.489349 276.580414,133.539902 
	C265.923431,133.845886 255.252899,133.657166 244.593033,133.901276 
	C241.502335,133.972031 239.785675,132.954239 238.305542,130.273285 
	C234.643951,123.641060 230.658920,117.187424 226.214798,109.664902 
	C225.111465,111.881348 224.502533,113.104591 223.298172,114.758484 
	C223.139877,115.212502 222.981567,115.666519 222.459564,116.332596 
	C222.459564,116.332596 222.392151,116.748161 221.904205,117.160454 
	C220.951859,118.857170 219.999512,120.553886 218.794647,122.284668 
z"/>
<path fill="#83B5E7" opacity="1.000000" stroke="none" 
	d="
M108.393509,160.960754 
	C100.899673,148.223907 93.387337,135.497894 85.919418,122.745880 
	C81.888268,115.862396 77.709808,109.048325 74.089409,101.952141 
	C73.095802,100.004623 72.959259,96.647423 73.982002,94.793686 
	C84.467056,75.789276 95.311874,56.983772 105.947960,38.061871 
	C107.687157,34.967785 109.797302,33.790546 113.471298,33.818382 
	C135.244736,33.983345 157.020660,33.803638 178.794952,33.907352 
	C180.519180,33.915562 182.237381,35.195229 184.005936,36.717621 
	C183.943146,42.984966 183.808884,48.418354 183.732681,53.852562 
	C183.695526,56.503002 183.858749,59.158127 183.767731,61.805511 
	C183.621582,66.055695 183.226624,70.300797 183.211548,74.549034 
	C183.208557,75.388542 184.446365,76.232452 185.111954,77.074333 
	C183.464722,80.252762 181.817505,83.431198 179.779709,87.363266 
	C175.488235,80.022232 171.519867,73.692612 168.054413,67.098686 
	C166.486801,64.115921 164.637436,63.218155 161.410217,63.277210 
	C150.935226,63.468903 140.452393,63.468342 129.977310,63.279247 
	C126.753395,63.221050 124.774765,64.189796 123.182213,67.041542 
	C117.692505,76.871765 111.921219,86.544830 106.441803,96.380600 
	C105.786804,97.556351 105.676468,99.696312 106.312798,100.827087 
	C111.854904,110.675507 117.487335,120.481293 123.455475,130.074173 
	C124.518280,131.782486 127.229263,133.385422 129.223953,133.441376 
	C140.359970,133.753815 151.511688,133.674683 162.652679,133.456039 
	C164.288010,133.423950 166.594086,132.359009 167.397202,131.043732 
	C171.548828,124.244469 175.312485,117.208298 179.919617,110.153946 
	C181.419205,111.810318 182.904633,113.574181 182.887711,115.323532 
	C182.788132,125.626602 182.099579,135.926804 182.121628,146.226868 
	C182.130798,150.505753 183.405640,154.781906 184.104919,159.059311 
	C182.364914,160.129807 180.742569,161.607971 178.851151,162.153946 
	C177.029831,162.679642 174.930344,162.241776 172.228729,162.110901 
	C171.315918,162.003860 171.127441,162.013168 170.938965,162.022491 
	C152.953796,162.091248 134.968628,162.160004 116.240608,162.113220 
	C115.305710,162.008118 115.113663,162.018555 114.921623,162.029007 
	C113.881180,162.096771 112.840729,162.164520 111.210205,161.929565 
	C109.877922,161.404816 109.135712,161.182785 108.393509,160.960754 
z"/>
<path fill="#A4CA6A" opacity="1.000000" stroke="none" 
	d="
M294.996765,161.998840 
	C271.632416,162.049911 248.268051,162.100983 224.456055,161.539032 
	C224.004242,148.188141 224.069016,135.449509 223.924301,122.713257 
	C223.901627,120.719345 222.926743,118.736252 222.392151,116.748161 
	C222.392151,116.748161 222.459564,116.332596 222.878906,115.964371 
	C223.496689,115.173370 223.695145,114.750603 223.893616,114.327835 
	C224.502533,113.104591 225.111465,111.881348 226.214798,109.664902 
	C230.658920,117.187424 234.643951,123.641060 238.305542,130.273285 
	C239.785675,132.954239 241.502335,133.972031 244.593033,133.901276 
	C255.252899,133.657166 265.923431,133.845886 276.580414,133.539902 
	C278.340973,133.489349 280.788635,132.228439 281.670227,130.771423 
	C287.532410,121.083076 293.149292,111.240746 298.579163,101.302719 
	C299.335297,99.918800 299.266693,97.382980 298.493958,95.977364 
	C292.958954,85.909103 287.236481,75.938965 281.307251,66.098099 
	C280.490051,64.741783 278.219910,63.539314 276.597229,63.506359 
	C265.601898,63.283009 254.596710,63.265278 243.603058,63.528648 
	C241.885910,63.569790 239.573441,64.971771 238.626556,66.445183 
	C234.396469,73.027504 230.561646,79.863853 225.961395,86.727745 
	C224.759415,85.826706 223.678238,84.806206 223.678604,83.786102 
	C223.682190,73.801010 223.971985,63.815845 223.959686,53.830975 
	C223.952118,47.690342 223.561172,41.550190 223.342377,35.409821 
	C223.342392,35.409821 223.399307,35.298191 223.813522,35.450172 
	C225.156525,35.391357 226.085312,35.180557 227.014099,34.969757 
	C243.352890,34.888912 259.691681,34.808071 276.836548,34.862923 
	C278.116821,34.990665 278.591003,34.982723 279.065186,34.974777 
	C284.544891,34.870010 290.029297,34.608601 295.501038,34.771278 
	C296.858643,34.811642 298.746216,35.892460 299.425842,37.057568 
	C310.821198,56.592346 322.098663,76.196442 333.249878,95.871544 
	C333.904633,97.026764 333.819214,99.229774 333.145813,100.415756 
	C321.979370,120.081688 310.677002,139.670624 299.344971,159.242004 
	C298.718628,160.323746 297.569031,161.102554 296.069122,161.994949 
	C295.475250,161.967514 294.996765,161.998840 294.996765,161.998840 
z"/>
<path fill="#9AC283" opacity="1.000000" stroke="none" 
	d="
M210.637878,56.875347 
	C212.159546,54.007000 213.681213,51.138653 215.883423,48.141975 
	C217.375351,49.747177 218.850769,51.466236 218.888870,53.216606 
	C219.112152,63.468964 218.889969,73.730354 219.051025,83.985039 
	C219.120560,88.412857 219.747940,92.831909 220.121918,97.254944 
	C218.314697,100.478706 216.507492,103.702469 214.327103,106.727921 
	C213.667389,105.067780 213.141876,103.607643 213.131561,102.143875 
	C213.036697,88.681190 213.111099,75.216591 212.895782,61.756401 
	C212.869568,60.117764 211.425079,58.501812 210.637878,56.875347 
z"/>
<path fill="#9EC475" opacity="1.000000" stroke="none" 
	d="
M220.406067,97.059204 
	C219.747940,92.831909 219.120560,88.412857 219.051025,83.985039 
	C218.889969,73.730354 219.112152,63.468964 218.888870,53.216606 
	C218.850769,51.466236 217.375351,49.747177 216.154251,47.943783 
	C218.078598,43.813660 220.412628,39.753407 223.044525,35.551491 
	C223.561172,41.550190 223.952118,47.690342 223.959686,53.830975 
	C223.971985,63.815845 223.682190,73.801010 223.678604,83.786102 
	C223.678238,84.806206 224.759415,85.826706 225.682922,86.922256 
	C224.248154,90.286148 222.469177,93.574806 220.406067,97.059204 
z"/>
<path fill="#96C091" opacity="1.000000" stroke="none" 
	d="
M210.372391,57.074097 
	C211.425079,58.501812 212.869568,60.117764 212.895782,61.756401 
	C213.111099,75.216591 213.036697,88.681190 213.131561,102.143875 
	C213.141876,103.607643 213.667389,105.067780 214.044540,106.932289 
	C212.732422,109.998093 211.329697,112.661217 209.522675,115.135132 
	C208.645950,113.077431 207.770721,111.209892 207.766312,109.340294 
	C207.737030,96.925705 208.011734,84.508972 207.832397,72.098076 
	C207.811508,70.652779 205.614349,69.238930 204.426117,67.810501 
	C206.319702,64.297943 208.213303,60.785393 210.372391,57.074097 
z"/>
<path fill="#94BFA0" opacity="1.000000" stroke="none" 
	d="
M204.265625,67.910400 
	C205.614349,69.238930 207.811508,70.652779 207.832397,72.098076 
	C208.011734,84.508972 207.737030,96.925705 207.766312,109.340294 
	C207.770721,111.209892 208.645950,113.077431 209.234390,115.343124 
	C207.735382,118.683594 206.120346,121.626869 204.011261,124.432358 
	C203.345215,122.495125 203.029617,120.696136 203.024063,118.896187 
	C202.982162,105.297691 203.049133,91.698662 202.949875,78.100761 
	C202.934799,76.033882 202.236710,73.971977 201.854523,71.907761 
	C202.094727,71.401176 202.334915,70.894585 202.970093,70.008186 
	C203.540649,69.323494 203.716202,69.018600 203.891739,68.713707 
	C203.848694,68.444588 203.919815,68.210114 204.265625,67.910400 
z"/>
<path fill="#8DBAB6" opacity="1.000000" stroke="none" 
	d="
M200.113571,131.299500 
	C199.169647,133.199524 198.225708,135.099564 196.665344,136.978928 
	C195.469055,135.215027 194.417953,133.481110 194.383301,131.727097 
	C194.083984,116.577370 193.967728,101.424019 193.796890,86.271751 
	C195.276398,83.491859 196.755890,80.711960 198.577560,78.162643 
	C199.279419,85.778801 199.810532,93.160973 199.957245,100.550781 
	C200.160690,110.797348 200.075302,121.049652 200.113571,131.299500 
z"/>
<path fill="#8BB9C5" opacity="1.000000" stroke="none" 
	d="
M193.497772,86.476685 
	C193.967728,101.424019 194.083984,116.577370 194.383301,131.727097 
	C194.417953,133.481110 195.469055,135.215027 196.420990,137.173737 
	C195.442047,139.821060 194.091019,142.252930 192.127960,144.659821 
	C191.049011,143.783768 190.174713,142.931885 190.176468,142.081787 
	C190.201248,130.110184 190.461090,118.138184 190.395905,106.167747 
	C190.373825,102.114510 189.603058,98.065346 189.174438,94.014320 
	C190.515823,91.570091 191.857239,89.125854 193.497772,86.476685 
z"/>
<path fill="#88B8D1" opacity="1.000000" stroke="none" 
	d="
M188.933105,94.260864 
	C189.603058,98.065346 190.373825,102.114510 190.395905,106.167747 
	C190.461090,118.138184 190.201248,130.110184 190.176468,142.081787 
	C190.174713,142.931885 191.049011,143.783768 191.845428,144.866562 
	C190.919495,147.458023 189.664093,149.817734 187.806961,152.081665 
	C186.525589,150.146591 185.287262,148.314377 185.263947,146.466827 
	C185.168121,138.875412 185.436493,131.279251 185.581451,123.685028 
	C185.695007,117.737328 185.926514,111.788513 185.845047,105.843765 
	C185.831528,104.858238 184.481354,103.891045 183.748886,102.915382 
	C185.396515,100.112724 187.044128,97.310074 188.933105,94.260864 
z"/>
<path fill="#97BD7B" opacity="1.000000" stroke="none" 
	d="
M217.833038,153.086899 
	C215.430832,149.190475 212.797211,145.410217 210.751465,141.334839 
	C210.032028,139.901657 210.197144,137.475769 210.925262,135.970993 
	C212.849258,131.994690 215.302383,128.274414 218.136459,124.371017 
	C222.394547,131.277267 221.141006,138.697662 220.392899,145.992706 
	C220.144028,148.419434 218.719894,150.725616 217.833038,153.086899 
z"/>
<path fill="#84B4D5" opacity="1.000000" stroke="none" 
	d="
M185.405365,76.898346 
	C184.446365,76.232452 183.208557,75.388542 183.211548,74.549034 
	C183.226624,70.300797 183.621582,66.055695 183.767731,61.805511 
	C183.858749,59.158127 183.695526,56.503002 183.732681,53.852562 
	C183.808884,48.418354 183.943146,42.984966 184.087601,37.095711 
	C186.087982,39.758465 188.054276,42.876751 189.970337,46.763229 
	C190.076965,54.420197 190.233795,61.308975 190.390594,68.197754 
	C190.201859,68.673798 190.013123,69.149841 189.469650,69.958374 
	C189.114914,70.290863 189.000854,70.665627 189.000854,70.665627 
	C187.900162,72.684540 186.799469,74.703453 185.405365,76.898346 
z"/>
<path fill="#90BDAA" opacity="1.000000" stroke="none" 
	d="
M200.393677,131.103958 
	C200.075302,121.049652 200.160690,110.797348 199.957245,100.550781 
	C199.810532,93.160973 199.279419,85.778801 198.858627,77.954140 
	C199.614441,75.738625 200.431366,73.962181 201.551407,72.046753 
	C202.236710,73.971977 202.934799,76.033882 202.949875,78.100761 
	C203.049133,91.698662 202.982162,105.297691 203.024063,118.896187 
	C203.029617,120.696136 203.345215,122.495125 203.744797,124.637779 
	C202.872833,126.956802 201.773300,128.932617 200.393677,131.103958 
z"/>
<path fill="#83B3DA" opacity="1.000000" stroke="none" 
	d="
M183.441498,103.063751 
	C184.481354,103.891045 185.831528,104.858238 185.845047,105.843765 
	C185.926514,111.788513 185.695007,117.737328 185.581451,123.685028 
	C185.436493,131.279251 185.168121,138.875412 185.263947,146.466827 
	C185.287262,148.314377 186.525589,150.146591 187.537415,152.288086 
	C186.793716,154.606537 185.717804,156.622787 184.373413,158.849182 
	C183.405640,154.781906 182.130798,150.505753 182.121628,146.226868 
	C182.099579,135.926804 182.788132,125.626602 182.887711,115.323532 
	C182.904633,113.574181 181.419205,111.810318 180.222473,109.992722 
	C180.922791,107.692230 182.028442,105.452179 183.441498,103.063751 
z"/>
<path fill="#9CC16E" opacity="1.000000" stroke="none" 
	d="
M217.826431,153.449844 
	C218.719894,150.725616 220.144028,148.419434 220.392899,145.992706 
	C221.141006,138.697662 222.394547,131.277267 218.389969,124.146683 
	C218.130661,123.761047 218.209396,123.518532 218.587372,122.922012 
	C218.886581,122.568008 219.047165,122.250603 219.047165,122.250603 
	C219.999512,120.553886 220.951859,118.857170 222.148178,116.954308 
	C222.926743,118.736252 223.901627,120.719345 223.924301,122.713257 
	C224.069016,135.449509 224.004242,148.188141 224.010513,161.384521 
	C221.948349,159.166290 219.884079,156.489548 217.826431,153.449844 
z"/>
<path fill="#83B1C0" opacity="1.000000" stroke="none" 
	d="
M190.658142,68.011795 
	C190.233795,61.308975 190.076965,54.420197 190.020401,47.101292 
	C191.997208,49.755142 194.104324,52.730965 195.628403,55.980263 
	C196.180908,57.158169 195.673447,59.141312 195.062057,60.490829 
	C193.908188,63.037735 192.328430,65.391693 190.658142,68.011795 
z"/>
<path fill="#9EC475" opacity="1.000000" stroke="none" 
	d="
M226.777130,34.840530 
	C226.085312,35.180557 225.156525,35.391357 223.875961,35.455284 
	C224.529510,35.109379 225.534821,34.910339 226.777130,34.840530 
z"/>
<path fill="#83B3DA" opacity="1.000000" stroke="none" 
	d="
M108.441963,161.210541 
	C109.135712,161.182785 109.877922,161.404816 110.827690,161.836868 
	C110.186974,161.851364 109.338699,161.655853 108.441963,161.210541 
z"/>
<path fill="#9EC475" opacity="1.000000" stroke="none" 
	d="
M278.873993,34.847656 
	C278.591003,34.982723 278.116821,34.990665 277.286926,34.986206 
	C277.515106,34.889381 278.098938,34.804962 278.873993,34.847656 
z"/>
<path fill="#83B1C0" opacity="1.000000" stroke="none" 
	d="
M189.138550,70.648605 
	C189.000854,70.665627 189.114914,70.290863 189.182526,70.218277 
	C189.436264,70.298149 189.444962,70.460114 189.138550,70.648605 
z"/>
<path fill="#9CC16E" opacity="1.000000" stroke="none" 
	d="
M223.595886,114.543159 
	C223.695145,114.750603 223.496689,115.173370 223.060745,115.858337 
	C222.981567,115.666519 223.139877,115.212502 223.595886,114.543159 
z"/>
<path fill="#90BDAA" opacity="1.000000" stroke="none" 
	d="
M203.623840,68.829330 
	C203.716202,69.018600 203.540649,69.323494 203.174622,69.812759 
	C203.108063,69.646423 203.231995,69.295692 203.623840,68.829330 
z"/>
<path fill="#97BD7B" opacity="1.000000" stroke="none" 
	d="
M218.920898,122.267639 
	C219.047165,122.250603 218.886581,122.568008 218.856476,122.650238 
	C218.659439,122.594353 218.648865,122.445084 218.920898,122.267639 
z"/>
<path fill="#83B3DA" opacity="1.000000" stroke="none" 
	d="
M115.037651,162.161209 
	C115.113663,162.018555 115.305710,162.008118 115.786057,162.012589 
	C115.767479,162.116135 115.460579,162.204773 115.037651,162.161209 
z"/>
<path fill="#83B3DA" opacity="1.000000" stroke="none" 
	d="
M171.050140,162.156494 
	C171.127441,162.013168 171.315918,162.003860 171.787216,162.010284 
	C171.767120,162.114197 171.464218,162.202347 171.050140,162.156494 
z"/>
<path fill="#9CC16E" opacity="1.000000" stroke="none" 
	d="
M295.089508,162.124527 
	C294.996765,161.998840 295.475250,161.967514 295.714966,161.973572 
	C295.954651,161.979645 295.639099,162.279205 295.639099,162.279205 
	C295.639099,162.279205 295.182251,162.250214 295.089508,162.124527 
z"/>
</svg>